Coordinates
version=1
nRows=11
nColumns=40
inDegrees=yes

Units are S.I. units (second, meters, Newtons, ...)
Angles are in degrees.

endheader
time	pelvis_tilt	pelvis_list	pelvis_rotation	pelvis_tx	pelvis_ty	pelvis_tz	hip_flexion_r	hip_adduction_r	hip_rotation_r	knee_angle_r	knee_angle_r_beta	ankle_angle_r	subtalar_angle_r	mtp_angle_r	hip_flexion_l	hip_adduction_l	hip_rotation_l	knee_angle_l	knee_angle_l_beta	ankle_angle_l	subtalar_angle_l	mtp_angle_l	lumbar_extension	lumbar_bending	lumbar_rotation	arm_flex_r	arm_add_r	arm_rot_r	elbow_flex_r	pro_sup_r	wrist_flex_r	wrist_dev_r	arm_flex_l	arm_add_l	arm_rot_l	elbow_flex_l	pro_sup_l	wrist_flex_l	wrist_dev_l
     16.23500000	     -4.46394914	     -5.79119789	      8.19762202	      1.10962386	      0.91366300	      0.45566528	     -3.96645050	      5.64218868	    -19.78207248	      7.45643167	      7.45643167	     17.74979974	      2.91231300	     -4.08482625	     35.82251051	     -6.62425952	     -0.67255405	     18.37517724	     18.37517724	      6.21865241	     -6.40117278	      8.68514010	     -8.15447349	      6.04160231	      4.23269571	     46.48827743	    -18.48399759	     -6.01134185	     80.57513452	     44.85525142	      0.00000000	      0.00000000	    -17.92649396	     -8.28577728	      4.66619337	     24.05910079	     45.56777125	      0.00000000	      0.00000000
     16.24607143	     -4.64996869	     -5.74403021	      7.96945856	      1.11056138	      0.91171395	      0.45384891	     -4.34438887	      5.42871675	    -19.52462769	      7.77399871	      7.77399871	     18.46481437	      3.01703700	     -3.69489106	     35.72520500	     -6.42543181	     -0.83597095	     19.08892283	     19.08892283	      5.24880979	     -7.85560749	      8.15309292	     -7.86443801	      5.93970138	      4.14219120	     47.52027182	    -18.03207403	     -6.02072793	     82.80180610	     44.80214391	      0.00000000	      0.00000000	    -19.26471424	     -8.18310973	      4.84525979	     24.16585071	     45.50721428	      0.00000000	      0.00000000
     16.25714286	     -4.68709497	     -5.69212166	      7.67520884	      1.11175177	      0.90998601	      0.45199673	     -4.88084720	      5.20248033	    -19.28081960	      8.11397593	      8.11397593	     19.00796666	      3.09019879	     -3.58014236	     35.56425405	     -6.35874805	     -1.18312402	     20.18430147	     20.18430147	      4.52614780	     -8.98797563	      7.91468291	     -7.72931349	      5.85856918	      4.27597310	     48.70445513	    -17.78778289	     -6.09860193	     84.13567127	     44.77213256	      0.00000000	      0.00000000	    -20.22381311	     -8.04411856	      4.93008962	     23.99294730	     45.47429635	      0.00000000	      0.00000000
     16.26821429	     -4.81557916	     -5.57981772	      7.35797293	      1.11301163	      0.90829317	      0.45001713	     -5.29245723	      4.86470432	    -19.00991072	      8.52606991	      8.52606991	     19.52647489	      3.15795176	     -3.43588112	     35.43961685	     -6.22977076	     -1.42033345	     21.24219775	     21.24219775	      3.66478146	    -10.09511958	      7.70792780	     -7.49249772	      5.67893841	      4.26077496	     49.63674812	    -17.35859829	     -6.10428542	     85.63495242	     44.73252884	      0.00000000	      0.00000000	    -21.15282098	     -7.82193034	      5.00846602	     23.82019238	     45.44322642	      0.00000000	      0.00000000
     16.27928571	     -4.97558199	     -5.49227612	      7.05157274	      1.11436001	      0.90676624	      0.44788537	     -5.49894154	      4.45121865	    -18.92853472	      9.34988184	      9.34988184	     20.66352846	      3.58019400	     -1.66777259	     35.11934736	     -6.03226893	     -1.28886644	     21.80873383	     21.80873383	      1.77162612	    -11.86900018	      5.49248462	     -7.27796026	      5.53448083	      4.62286692	     49.59287835	    -17.39464764	     -6.54189714	     89.06118090	     44.68510542	      0.00000000	      0.00000000	    -22.03586329	     -7.81639616	      5.38666272	     24.28435276	     45.37078915	      0.00000000	      0.00000000
     16.29035714	     -5.02397140	     -5.35266339	      6.74216018	      1.11573206	      0.90562688	      0.44572316	     -5.89045334	      4.03154261	    -18.64189843	      9.95843800	      9.95843800	     20.97857341	      3.51075154	     -1.72818769	     34.95263471	     -5.93703760	     -1.49310101	     22.94342958	     22.94342958	      1.25642526	    -12.54483280	      5.40581095	     -7.11257598	      5.33555378	      4.54436223	     50.30257489	    -16.91574355	     -6.48563766	     90.06615519	     44.65886642	      0.00000000	      0.00000000	    -22.62700256	     -7.57578078	      5.49120397	     23.98122559	     45.34529529	      0.00000000	      0.00000000
     16.30142857	     -5.11607414	     -5.14348039	      6.40900585	      1.11718494	      0.90495703	      0.44338148	     -6.30947204	      3.53207337	    -18.32847120	     10.40499716	     10.40499716	     21.06001855	      3.50448229	     -1.76377677	     34.69411705	     -5.77961020	     -1.73230018	     23.83040657	     23.83040657	      0.94009668	    -13.00334213	      5.35516180	     -6.86490863	      5.10401093	      4.62465403	     50.63661709	    -16.68974021	     -6.46758929	     90.66083282	     44.64226900	      0.00000000	      0.00000000	    -23.18060718	     -7.37070083	      5.53478935	     23.74907111	     45.32894007	      0.00000000	      0.00000000
     16.31250000	     -5.27632939	     -5.01703514	      6.16919399	      1.11821266	      0.90414674	      0.44095848	     -5.93645848	      2.89571994	    -18.04243750	     12.22718832	     12.22718832	     21.43554988	      2.92808114	     -2.10497049	     34.72899506	     -5.61046609	     -1.59023555	     24.98330823	     24.98330823	      0.83779460	    -13.78478465	      4.96664940	     -6.73116847	      4.92996865	      4.06511121	     50.74658623	    -15.72404924	     -6.34654004	     93.29501467	     44.56529186	      0.00000000	      0.00000000	    -23.42834585	     -6.96388444	      5.67021281	     23.42047530	     45.30999043	      0.00000000	      0.00000000
     16.32357143	     -5.26149383	     -4.83010574	      5.92793917	      1.11939493	      0.90420594	      0.43840785	     -5.92318261	      2.26286175	    -17.72309803	     13.67954475	     13.67954475	     21.40433755	      2.43878662	     -2.45529820	     34.45256309	     -5.44605760	     -1.62622977	     25.93998960	     25.93998960	      1.06471295	    -14.18350499	      4.64729420	     -6.73125607	      4.72566801	      3.96771993	     50.63527168	    -15.41873058	     -6.37813000	     94.80962264	     44.52555406	      0.00000000	      0.00000000	    -23.41946305	     -6.75847582	      5.73206921	     23.21524027	     45.30663344	      0.00000000	      0.00000000
     16.33464286	     -5.35532914	     -4.62281064	      5.66866463	      1.12042436	      0.90460248	      0.43582181	     -5.59116676	      1.58088564	    -17.17275231	     15.39426184	     15.39426184	     20.72631008	      1.27008505	     -4.06937984	     34.21479439	     -5.26209068	     -1.73304592	     26.74939528	     26.74939528	      1.61755168	    -14.42183852	      4.57864065	     -6.67806923	      4.46774618	      4.63783024	     49.31861440	    -15.98452344	     -7.09743774	     98.34343932	     44.47869793	      0.00000000	      0.00000000	    -22.60790955	     -6.68179987	      5.88722118	     22.41514581	     45.33536141	      0.00000000	      0.00000000
     16.34571429	     -5.28794946	     -4.41513748	      5.44032745	      1.12140006	      0.90554367	      0.43305048	     -5.18191152	      0.79500579	    -16.88842075	     17.62124256	     17.62124256	     20.27938630	      0.46735913	     -4.73024743	     33.76145593	     -5.09239324	     -1.89241261	     27.48211790	     27.48211790	      2.32905784	    -14.54274205	      4.22898295	     -6.74585769	      4.27307048	      4.28209826	     48.96814216	    -15.47532937	     -6.94448562	     99.27770706	     44.45055209	      0.00000000	      0.00000000	    -22.36601433	     -6.42863588	      5.96993161	     22.28294652	     45.33179356	      0.00000000	      0.00000000
